<svg width="24" height="24" viewBox="0 0 24 24" fill="none" xmlns="http://www.w3.org/2000/svg">
<g id="bi:arrow-left">
<g id="Group">
<path id="Vector" fill-rule="evenodd" clip-rule="evenodd" d="M1.49954 12C1.49954 11.8011 1.57856 11.6103 1.71921 11.4696C1.85987 11.329 2.05063 11.25 2.24954 11.25H19.939L15.2185 6.53097C15.1488 6.46124 15.0935 6.37846 15.0558 6.28735C15.018 6.19624 14.9986 6.09859 14.9986 5.99997C14.9986 5.90135 15.018 5.8037 15.0558 5.7126C15.0935 5.62149 15.1488 5.5387 15.2185 5.46897C15.2883 5.39924 15.3711 5.34392 15.4622 5.30619C15.5533 5.26845 15.6509 5.24902 15.7495 5.24902C15.8482 5.24902 15.9458 5.26845 16.0369 5.30619C16.128 5.34392 16.2108 5.39924 16.2805 5.46897L22.2805 11.469C22.3504 11.5386 22.4058 11.6214 22.4436 11.7125C22.4814 11.8036 22.5009 11.9013 22.5009 12C22.5009 12.0986 22.4814 12.1963 22.4436 12.2874C22.4058 12.3785 22.3504 12.4613 22.2805 12.531L16.2805 18.531C16.2108 18.6007 16.128 18.656 16.0369 18.6938C15.9458 18.7315 15.8482 18.7509 15.7495 18.7509C15.6509 18.7509 15.5533 18.7315 15.4622 18.6938C15.3711 18.656 15.2883 18.6007 15.2185 18.531C15.1488 18.4612 15.0935 18.3785 15.0558 18.2873C15.018 18.1962 14.9986 18.0986 14.9986 18C14.9986 17.9014 15.018 17.8037 15.0558 17.7126C15.0935 17.6215 15.1488 17.5387 15.2185 17.469L19.939 12.75H2.24954C2.05063 12.75 1.85987 12.671 1.71921 12.5303C1.57856 12.3896 1.49954 12.1989 1.49954 12Z" fill="#FFA502"/>
</g>
</g>
</svg>
