<svg width="131" height="74" viewBox="0 0 131 74" fill="none" xmlns="http://www.w3.org/2000/svg">
<g id="Group 5888">
<g id="Group 5887">
<g id="Group">
<path id="Vector" fill-rule="evenodd" clip-rule="evenodd" d="M25.0439 69.2676L27.2881 73.3819L29.5272 69.2777C28.7993 69.3586 28.0715 69.4142 27.3487 69.4142C26.5905 69.4142 25.8122 69.3586 25.0439 69.2676ZM18.7663 57.7789L23.9926 67.3469C24.1796 67.3823 24.3767 67.4127 24.5637 67.4379C25.4937 67.5744 26.4389 67.6603 27.3538 67.6603C28.2686 67.6603 29.2189 67.5744 30.1489 67.4379C30.2904 67.4177 30.4319 67.3874 30.5785 67.3672L35.7997 57.8042C35.5116 57.8396 35.2185 57.8598 34.8899 57.8598C32.6458 57.8598 31.4529 56.9298 30.2702 55.9947C29.4665 55.373 28.6629 54.7412 27.3639 54.7412C26.0649 54.7412 25.2663 55.373 24.4576 55.9947C23.2748 56.9298 22.082 57.8598 19.8378 57.8598C19.4486 57.8598 19.0999 57.8345 18.7663 57.7789Z" fill="#111116"/>
<path id="Vector_2" fill-rule="evenodd" clip-rule="evenodd" d="M27.3499 23.085H27.3651C33.4506 23.09 38.9801 25.5818 42.9883 29.59C46.9813 33.5881 49.463 39.1024 49.4731 45.1779V45.2132V45.2284C49.4681 51.3089 46.9762 56.8435 42.9681 60.8516C40.4661 63.3485 37.3678 65.254 33.9106 66.3357L37.0544 60.4321C38.1613 59.7245 39.1874 58.9057 40.1123 57.9807C43.3825 54.7156 45.4144 50.1969 45.4195 45.2284V45.2132V45.1779C45.4144 40.2144 43.3775 35.7059 40.1174 32.4407C36.8522 29.1705 32.3386 27.1386 27.3651 27.1386H27.3499H27.3145C22.3612 27.1437 17.8577 29.1755 14.5925 32.4407H14.5824C11.3122 35.7059 9.28539 40.2245 9.28034 45.1981V45.2132V45.2486C9.29044 50.207 11.3122 54.7105 14.5824 57.9807C15.4265 58.8248 16.3565 59.5779 17.3523 60.2451L20.5467 66.2548C17.1855 65.1631 14.1579 63.2828 11.7115 60.8314C7.71346 56.8334 5.23174 51.3139 5.22668 45.2486V45.2132V45.1981C5.23174 39.1125 7.71852 33.583 11.7267 29.5748L11.7216 29.5698C15.7197 25.5717 21.2442 23.0951 27.3145 23.085" fill="#111116"/>
<path id="Vector_3" fill-rule="evenodd" clip-rule="evenodd" d="M16.9475 23.7169C23.8872 20.1232 30.8118 20.3355 37.7616 23.7169C37.7616 20.3506 37.7616 17.1562 37.7616 13.7799C32.7527 7.84094 21.5369 8.11893 16.9475 13.7799C16.9475 16.5851 16.9475 20.9066 16.9475 23.7169ZM10.6042 16.4638V14.9828V7.72974V6.63293C10.6042 6.29429 10.8569 6.00618 11.1956 5.96575L16.2702 5.32384L27.3495 0.618164L54.7041 12.2332L39.5762 16.1555V13.5221L39.3689 12.956C38.8685 12.3596 38.2923 11.8036 37.6757 11.3032C34.7997 8.97819 30.9381 7.86621 27.1372 7.90159C23.3312 7.94203 19.5505 9.13993 16.8515 11.4144C16.2955 11.8845 15.7799 12.4101 15.3149 12.9762L15.1178 13.5221V16.1555L11.9436 15.3316V16.4638C12.2519 16.6811 12.4592 17.0349 12.4592 17.4444C12.4592 17.8841 12.2165 18.2632 11.8678 18.4704C12.0498 18.5614 12.2267 18.6877 12.3833 18.8596L12.7928 22.7262C12.3833 23.0598 11.8526 23.262 11.2764 23.262C10.7002 23.262 10.1746 23.0598 9.74999 22.7262L10.1594 18.8596C10.3161 18.6877 10.493 18.5563 10.6749 18.4704C10.3211 18.2632 10.0886 17.8841 10.0886 17.4444C10.0836 17.0349 10.2908 16.6761 10.6042 16.4638ZM0 12.2332L9.25466 8.30089V14.629L0 12.2332Z" fill="#FFBE48"/>
<path id="Vector_4" fill-rule="evenodd" clip-rule="evenodd" d="M36.5039 52.512V25.2231H30.3931V51.5062C30.8025 51.7437 31.1766 52.0116 31.5506 52.2845C32.2784 52.8102 33.0063 53.3409 34.184 53.3409C35.1948 53.3409 35.8671 52.9517 36.5039 52.512ZM24.3177 52.8658V26.5828H18.2069V53.8716C18.8387 54.3114 19.516 54.7056 20.5319 54.7056C21.7046 54.7056 22.4324 54.1749 23.1602 53.6442C23.5343 53.3763 23.9032 53.1034 24.3177 52.8658Z" fill="#111116"/>
</g>
<g id="Eu.">
<path d="M82.0176 26.3657H61.6585V63.2666H82.0176V58.3359H67.7026V47.043H80.4271V42.1122H67.7026V31.2964H82.0176V26.3657Z" fill="#111116"/>
<path d="M115.918 34.0534H109.874V50.3301C109.874 55.685 106.958 58.4419 102.505 58.4419C98.1042 58.4419 95.1882 55.685 95.1882 50.3301V34.0534H89.1971V51.2314C89.1971 59.3963 94.3929 63.6908 101.232 63.6908C104.678 63.6908 107.966 62.2593 109.874 59.7674V63.2666H115.918V34.0534Z" fill="#111116"/>
<path d="M130.149 59.7674C130.149 57.5936 128.453 55.897 126.332 55.897C124.158 55.897 122.462 57.5936 122.462 59.7674C122.462 61.9412 124.158 63.6378 126.332 63.6378C128.453 63.6378 130.149 61.9412 130.149 59.7674Z" fill="#111116"/>
</g>
</g>
</g>
</svg>
